<svg xmlns="http://www.w3.org/2000/svg" width="1600" height="900" viewBox="0 0 1600 900"><defs>
    <filter id="shadow" x="-20%" y="-20%" width="140%" height="140%"><feDropShadow dx="0" dy="10" stdDeviation="15" flood-color="#71513D" flood-opacity="0.10"/></filter>
    <filter id="softshadow" x="-20%" y="-20%" width="140%" height="140%"><feDropShadow dx="0" dy="6" stdDeviation="10" flood-color="#171512" flood-opacity="0.07"/></filter>
    <marker id="arrow" markerWidth="8" markerHeight="8" refX="7" refY="4" orient="auto"><path d="M0,0 L8,4 L0,8 Z" fill="#81786F"/></marker>
    <linearGradient id="amberWash" x1="0" y1="0" x2="1" y2="1"><stop offset="0" stop-color="#F7E9CF"/><stop offset="1" stop-color="#F6F0E6"/></linearGradient>
    </defs><rect width="1600" height="900" fill="#F6F0E6"/><line x1="70" y1="80" x2="1530" y2="80" stroke="#D7CEC2" stroke-width="1" stroke-linecap="round"/><line x1="70" y1="820" x2="1530" y2="820" stroke="#D7CEC2" stroke-width="1" stroke-linecap="round"/><text x="72" y="55" font-family="'Noto Sans CJK SC','PingFang SC','Microsoft YaHei','Arial',sans-serif" font-size="16" font-weight="700" fill="#71513D" text-anchor="start" letter-spacing="2">GLASSBOX / PERSONAL AGENT WORKBENCH</text><text x="1460" y="55" font-family="'Noto Sans CJK SC','PingFang SC','Microsoft YaHei','Arial',sans-serif" font-size="14" font-weight="600" fill="#81786F" text-anchor="end" letter-spacing="1.5">LORA VISUAL / MODE B</text><text x="88" y="200" font-family="'Noto Sans CJK SC','PingFang SC','Microsoft YaHei','Arial',sans-serif" font-size="92" font-weight="800" fill="#171512" text-anchor="start" letter-spacing="0">Glassbox</text><text x="92" y="268" font-family="'Noto Sans CJK SC','PingFang SC','Microsoft YaHei','Arial',sans-serif" font-size="44" font-weight="700" fill="#171512" text-anchor="start" letter-spacing="0">把每一次执行，沉淀成自己的能力</text><text x="94" y="320" font-family="'Noto Sans CJK SC','PingFang SC','Microsoft YaHei','Arial',sans-serif" font-size="25" font-weight="400" fill="#81786F" text-anchor="start" letter-spacing="0">一个长期存在、权限清晰、会持续学习的个人 Agent 工作台</text><text x="94" y="382" font-family="'Noto Sans CJK SC','PingFang SC','Microsoft YaHei','Arial',sans-serif" font-size="18" font-weight="700" fill="#71513D" text-anchor="start" letter-spacing="0">多端入口</text><text x="218" y="382" font-family="'Noto Sans CJK SC','PingFang SC','Microsoft YaHei','Arial',sans-serif" font-size="20" font-weight="700" fill="#D7CEC2" text-anchor="start" letter-spacing="0">·</text><text x="250" y="382" font-family="'Noto Sans CJK SC','PingFang SC','Microsoft YaHei','Arial',sans-serif" font-size="18" font-weight="700" fill="#71513D" text-anchor="start" letter-spacing="0">权限优先</text><text x="374" y="382" font-family="'Noto Sans CJK SC','PingFang SC','Microsoft YaHei','Arial',sans-serif" font-size="20" font-weight="700" fill="#D7CEC2" text-anchor="start" letter-spacing="0">·</text><text x="406" y="382" font-family="'Noto Sans CJK SC','PingFang SC','Microsoft YaHei','Arial',sans-serif" font-size="18" font-weight="700" fill="#71513D" text-anchor="start" letter-spacing="0">长程任务</text><text x="530" y="382" font-family="'Noto Sans CJK SC','PingFang SC','Microsoft YaHei','Arial',sans-serif" font-size="20" font-weight="700" fill="#D7CEC2" text-anchor="start" letter-spacing="0">·</text><text x="562" y="382" font-family="'Noto Sans CJK SC','PingFang SC','Microsoft YaHei','Arial',sans-serif" font-size="18" font-weight="700" fill="#71513D" text-anchor="start" letter-spacing="0">可追溯沉淀</text><rect x="90" y="470" width="250" height="150" rx="22" fill="#FFFDF8" opacity="1" stroke="#D7CEC2" stroke-width="1"/><text x="112" y="504" font-family="'Noto Sans CJK SC','PingFang SC','Microsoft YaHei','Arial',sans-serif" font-size="16" font-weight="700" fill="#D58A36" text-anchor="start" letter-spacing="0">01</text><text x="112" y="548" font-family="'Noto Sans CJK SC','PingFang SC','Microsoft YaHei','Arial',sans-serif" font-size="30" font-weight="700" fill="#171512" text-anchor="start" letter-spacing="0">入口</text><text x="112" y="586" font-family="'Noto Sans CJK SC','PingFang SC','Microsoft YaHei','Arial',sans-serif" font-size="16" font-weight="400" fill="#81786F" text-anchor="start" letter-spacing="0">微信 · QQ · 邮件 · 日历</text><rect x="365" y="470" width="250" height="150" rx="22" fill="#FFFDF8" opacity="1" stroke="#D7CEC2" stroke-width="1"/><text x="387" y="504" font-family="'Noto Sans CJK SC','PingFang SC','Microsoft YaHei','Arial',sans-serif" font-size="16" font-weight="700" fill="#D58A36" text-anchor="start" letter-spacing="0">02</text><text x="387" y="548" font-family="'Noto Sans CJK SC','PingFang SC','Microsoft YaHei','Arial',sans-serif" font-size="30" font-weight="700" fill="#171512" text-anchor="start" letter-spacing="0">权限</text><text x="387" y="586" font-family="'Noto Sans CJK SC','PingFang SC','Microsoft YaHei','Arial',sans-serif" font-size="16" font-weight="400" fill="#81786F" text-anchor="start" letter-spacing="0">默认拒绝 · 最小权限</text><rect x="640" y="470" width="250" height="150" rx="22" fill="#FFFDF8" opacity="1" stroke="#D7CEC2" stroke-width="1"/><text x="662" y="504" font-family="'Noto Sans CJK SC','PingFang SC','Microsoft YaHei','Arial',sans-serif" font-size="16" font-weight="700" fill="#D58A36" text-anchor="start" letter-spacing="0">03</text><text x="662" y="548" font-family="'Noto Sans CJK SC','PingFang SC','Microsoft YaHei','Arial',sans-serif" font-size="30" font-weight="700" fill="#171512" text-anchor="start" letter-spacing="0">沉淀</text><text x="662" y="586" font-family="'Noto Sans CJK SC','PingFang SC','Microsoft YaHei','Arial',sans-serif" font-size="16" font-weight="400" fill="#81786F" text-anchor="start" letter-spacing="0">Memory · Skill · Asset</text><rect x="90" y="680" width="800" height="76" rx="38" fill="#FFFDF8" opacity="1"/><text x="124" y="728" font-family="'Noto Sans CJK SC','PingFang SC','Microsoft YaHei','Arial',sans-serif" font-size="18" font-weight="700" fill="#81786F" text-anchor="start" letter-spacing="0">聊天入口</text><line x1="245" y1="718" x2="330" y2="718" stroke="#81786F" stroke-width="2" stroke-linecap="round" marker-end="url(#arrow)"/><text x="360" y="728" font-family="'Noto Sans CJK SC','PingFang SC','Microsoft YaHei','Arial',sans-serif" font-size="20" font-weight="800" fill="#171512" text-anchor="start" letter-spacing="0">Personal Agent</text><line x1="530" y1="718" x2="615" y2="718" stroke="#81786F" stroke-width="2" stroke-linecap="round" marker-end="url(#arrow)"/><text x="645" y="728" font-family="'Noto Sans CJK SC','PingFang SC','Microsoft YaHei','Arial',sans-serif" font-size="18" font-weight="700" fill="#71513D" text-anchor="start" letter-spacing="0">Trace → Memory / Skill / Asset</text><rect x="1000" y="135" width="500" height="610" rx="42" fill="url(#amberWash)" opacity="1" stroke="#D7CEC2" stroke-width="1"/><circle cx="1260" cy="410" r="210" fill="#F1DFC4" opacity="0.48"/><circle cx="1260" cy="410" r="150" fill="#FFFDF8" opacity="0.76"/><ellipse cx="1260" cy="676" rx="170" ry="28" fill="#D7CEC2" opacity="0.45"/><path d="M1162 335 Q1180 250 1262 250 Q1350 250 1364 342 L1346 420 Q1324 450 1288 458 L1194 446 Q1152 420 1162 335Z" fill="#1C1A17"/><ellipse cx="1262" cy="354" rx="76" ry="88" fill="#F7E6CE"/><path d="M1188 329 Q1205 271 1262 268 Q1324 267 1340 326 Q1313 302 1294 294 Q1272 325 1227 304 Q1212 326 1188 329Z" fill="#1C1A17"/><ellipse cx="1234" cy="360" rx="5" ry="8" fill="#171512"/><ellipse cx="1290" cy="360" rx="5" ry="8" fill="#171512"/><path d="M1246 394 Q1262 403 1278 394" stroke="#9A6557" stroke-width="3" fill="none" stroke-linecap="round"/><path d="M1175 472 Q1260 438 1344 472 L1378 646 L1142 646Z" fill="#71513D"/><path d="M1218 458 L1260 500 L1300 458" fill="#EFE4D2"/><rect x="1156" y="535" width="216" height="128" rx="12" fill="#2A2723"/><path d="M1136 664 H1392 L1368 684 H1160Z" fill="#171512"/><circle cx="1264" cy="599" r="18" fill="#D58A36" opacity="0.9"/><text x="1264" y="606" font-family="'Noto Sans CJK SC','PingFang SC','Microsoft YaHei','Arial',sans-serif" font-size="18" font-weight="800" fill="#FFFDF8" text-anchor="middle" letter-spacing="0">G</text><ellipse cx="1430" cy="646" rx="55" ry="44" fill="#FFFDF8" stroke="#71513D" stroke-width="3"/><path d="M1392 620 L1403 594 L1418 622 M1442 622 L1458 594 L1469 620" fill="#FFFDF8" stroke="#71513D" stroke-width="3" stroke-linejoin="round"/><circle cx="1417" cy="642" r="4" fill="#171512"/><circle cx="1445" cy="642" r="4" fill="#171512"/><text x="1070" y="188" font-family="'Noto Sans CJK SC','PingFang SC','Microsoft YaHei','Arial',sans-serif" font-size="15" font-weight="700" fill="#D58A36" text-anchor="start" letter-spacing="2">YOUR AGENT, YOUR ASSETS.</text><text x="1072" y="704" font-family="'AR PL KaitiM GB','STKaiti','KaiTi',serif" font-size="22" font-weight="500" fill="#71513D" text-anchor="start" letter-spacing="0">执行留下证据，证据长成能力。</text><text x="72" y="858" font-family="'Noto Sans CJK SC','PingFang SC','Microsoft YaHei','Arial',sans-serif" font-size="15" font-weight="700" fill="#71513D" text-anchor="start" letter-spacing="3">BUILD · OWN · COMPOUND</text><text x="1528" y="858" font-family="'Noto Sans CJK SC','PingFang SC','Microsoft YaHei','Arial',sans-serif" font-size="14" font-weight="600" fill="#81786F" text-anchor="end" letter-spacing="2">OPEN SOURCE</text></svg>